<?xml version="1.0"?>
<svg version="1.1" xmlns="http://www.w3.org/2000/svg" xmlns:xlink="http://www.w3.org/1999/xlink" 
	 viewBox="0 0 512 512" xml:space="preserve">
		<path d="M379.222,136.163L364.313,10.2C363.624,4.383,358.694,0,352.835,0h-50.464l-60.152,76.147l58.481,16.85
			c3.525,1.015,6.358,3.643,7.634,7.08c1.277,3.438,0.846,7.278-1.16,10.349l-33.182,50.766c-2.217,3.392-5.913,5.236-9.685,5.236
			c-2.168,0-4.361-0.609-6.312-1.884c-5.343-3.492-6.845-10.655-3.351-15.998l24.621-37.668l-59.982-17.284
			c-3.7-1.066-6.626-3.904-7.804-7.57c-1.179-3.666-0.453-7.678,1.935-10.699L272.914,0H159.164c-5.858,0-10.789,4.383-11.478,10.2
			l-14.909,125.964c-4.852,40.992,4.324,82.968,25.839,118.197c19.008,31.123,47.103,56.079,80.068,71.406
			c-0.003,0.144-0.022,0.285-0.022,0.43v133.11l-33.633,20.567c-6.625,4.051-9.749,12.014-7.643,19.489
			c2.104,7.474,8.923,12.639,16.687,12.639h83.851c7.766,0,14.584-5.164,16.687-12.639c2.105-7.474-1.018-15.437-7.643-19.489
			l-33.633-20.567v-133.11c0-0.146-0.018-0.285-0.022-0.43c32.965-15.328,61.06-40.283,80.068-71.406
			C374.898,219.132,384.075,177.154,379.222,136.163z"/>
</svg>