<svg viewBox="0 0 180 193" fill="none" xmlns="http://www.w3.org/2000/svg">
<path fill-rule="evenodd" clip-rule="evenodd" d="M89.9997 193C93.711 193 96.7197 189.986 96.7197 186.267V166.614L112.128 182.051C114.752 184.681 119.007 184.681 121.631 182.051C124.256 179.422 124.256 175.159 121.631 172.53L96.7197 147.572V45.4283L121.631 20.4699C124.256 17.8407 124.256 13.5779 121.631 10.9487C119.007 8.31943 114.752 8.31943 112.128 10.9487L96.7197 26.3857V6.73256C96.7197 3.01427 93.711 1.79869e-06 89.9997 1.79869e-06C86.2883 1.79869e-06 83.2797 3.01427 83.2797 6.73256V26.3857L67.8715 10.9487C65.2471 8.31943 60.9923 8.31943 58.368 10.9487C55.7436 13.5779 55.7436 17.8407 58.368 20.4699L83.2797 45.4283V147.572L58.368 172.53C55.7436 175.159 55.7436 179.422 58.368 182.051C60.9923 184.681 65.2471 184.681 67.8715 182.051L83.2797 166.614V186.267C83.2797 189.986 86.2883 193 89.9997 193Z" />
<path fill-rule="evenodd" clip-rule="evenodd" d="M31.8667 166.717C35.4516 167.679 39.1364 165.548 40.097 161.956L49.2153 127.863L137.509 76.7911L171.539 85.9267C175.124 86.8891 178.809 84.7577 179.769 81.1661C180.73 77.5745 178.603 73.8828 175.018 72.9204L153.969 67.2699L170.958 57.4432C174.172 55.5841 175.273 51.4665 173.417 48.2464C171.562 45.0263 167.452 43.923 164.238 45.7821L147.249 55.6086L152.889 34.5211C153.85 30.9295 151.723 27.2378 148.138 26.2754C144.553 25.3131 140.868 27.4445 139.907 31.036L130.789 65.13L42.4953 116.202L8.46523 107.066C4.88034 106.104 1.19552 108.235 0.234948 111.827C-0.725623 115.418 1.40181 119.11 4.9867 120.072L26.0348 125.723L9.04642 135.549C5.8323 137.409 4.73106 141.526 6.58673 144.746C8.44241 147.966 12.5523 149.07 15.7664 147.211L32.7547 137.384L27.1149 158.471C26.1544 162.063 28.2818 165.755 31.8667 166.717Z" />
<path fill-rule="evenodd" clip-rule="evenodd" d="M148.133 166.717C151.718 165.755 153.845 162.063 152.885 158.471L147.245 137.384L164.233 147.211C167.447 149.07 171.557 147.966 173.413 144.746C175.269 141.526 174.167 137.409 170.953 135.549L153.965 125.723L175.013 120.072C178.598 119.11 180.725 115.418 179.765 111.827C178.804 108.235 175.119 106.104 171.535 107.066L137.504 116.202L49.2109 65.13L40.0927 31.0361C39.1321 27.4445 35.4473 25.3131 31.8624 26.2754C28.2775 27.2378 26.1501 30.9295 27.1106 34.5211L32.7504 55.6087L15.762 45.7821C12.5479 43.923 8.43802 45.0263 6.58234 48.2464C4.72667 51.4665 5.82791 55.5841 9.04203 57.4432L26.0305 67.2699L4.98236 72.9204C1.39748 73.8828 -0.729932 77.5745 0.230656 81.1661C1.19124 84.7577 4.87608 86.8891 8.46096 85.9267L42.491 76.7911L130.784 127.863L139.903 161.956C140.863 165.548 144.548 167.679 148.133 166.717Z" />
</svg>
